<?xml version="1.0" encoding="UTF-8"?>
<svg version="1.1" xmlns="http://www.w3.org/2000/svg" width="75" height="48">
<path d="M0 0 C1.32 0 2.64 0 4 0 C4.01458252 1.03930664 4.02916504 2.07861328 4.04418945 3.14941406 C4.10223181 7.01125215 4.1794638 10.87251076 4.26245117 14.73388672 C4.2956727 16.40403833 4.32371334 18.07430146 4.34643555 19.74462891 C4.38003334 22.14794363 4.43234946 24.55023899 4.48828125 26.953125 C4.49467117 27.69806213 4.5010611 28.44299927 4.50764465 29.21051025 C4.59687087 32.36781554 4.81797654 34.66605302 6.34204102 37.4621582 C8.87295536 39.80971077 11.2381835 39.66817799 14.625 39.9375 C21.10383859 40.67006577 25.66336131 42.30105996 31 46 C30.67 46.66 30.34 47.32 30 48 C29.08992188 47.8246875 28.17984375 47.649375 27.2421875 47.46875 C21.86919559 46.70001967 16.52177077 47.18373039 11.125 47.5 C9.04453286 47.61924629 6.96380659 47.73408322 4.8828125 47.84375 C3.51213623 47.92399414 3.51213623 47.92399414 2.11376953 48.00585938 C0 48 0 48 -1 47 C-1.09813987 45.56259647 -1.1279828 44.12043673 -1.12939453 42.6796875 C-1.13254669 41.76203613 -1.13569885 40.84438477 -1.13894653 39.89892578 C-1.1369223 38.90103027 -1.13489807 37.90313477 -1.1328125 36.875 C-1.13376923 35.85776855 -1.13472595 34.84053711 -1.13571167 33.79248047 C-1.13639361 31.63704364 -1.13453835 29.48160478 -1.13037109 27.32617188 C-1.12502305 24.01427629 -1.13031563 20.70251633 -1.13671875 17.390625 C-1.13605797 15.30208303 -1.13477681 13.21354115 -1.1328125 11.125 C-1.13483673 10.12710449 -1.13686096 9.12920898 -1.13894653 8.10107422 C-1.13579437 7.18342285 -1.13264221 6.26577148 -1.12939453 5.3203125 C-1.12859894 4.50836426 -1.12780334 3.69641602 -1.12698364 2.85986328 C-1 1 -1 1 0 0 Z " fill="#FF9E09" transform="translate(1,0)"/>
<path d="M0 0 C1.65 0 3.3 0 5 0 C5 15.84 5 31.68 5 48 C-2.59 47.67 -10.18 47.34 -18 47 C-22.455 47.495 -22.455 47.495 -27 48 C-27 47.34 -27 46.68 -27 46 C-20.36885854 42.07819625 -14.43294881 40.27091166 -6.78515625 39.359375 C-3.92130985 39.08056074 -3.92130985 39.08056074 -1 38 C-0.67 25.46 -0.34 12.92 0 0 Z " fill="#FF9E09" transform="translate(70,0)"/>
</svg>
